<?xml version="1.0" standalone="no"?>
<svg version="1.0" xmlns="http://www.w3.org/2000/svg"
 width="888.000000pt" height="888.000000pt" viewBox="0 0 888.000000 888.000000"
 preserveAspectRatio="xMidYMid meet">
<metadata>
Created by potrace 1.14, written by Peter Selinger 2001-2017
</metadata>
<g transform="translate(0.000000,888.000000) scale(0.100000,-0.100000)"
fill="#000000" stroke="none">
<path d="M1323 7580 c0 -1179 2 -1300 16 -1301 20 -1 409 -1 437 0 l20 1 0
1056 c-1 581 1 1059 4 1063 3 4 1463 7 3245 7 l3240 -1 0 -2080 c-1 -1829 -3
-2151 -20 -2265 -4 -32 -17 -136 -21 -175 -10 -103 -106 -484 -145 -580 -7
-17 -14 -39 -16 -50 -2 -11 -9 -33 -17 -50 -7 -16 -28 -68 -46 -115 -40 -102
-191 -402 -243 -483 -20 -31 -36 -60 -36 -63 0 -4 -3 -10 -8 -13 -4 -3 -26
-33 -48 -66 -169 -254 -433 -544 -675 -741 -19 -16 -37 -31 -40 -34 -3 -3 -32
-25 -65 -50 -33 -25 -62 -47 -65 -50 -11 -12 -238 -160 -255 -166 -10 -4 -67
-36 -127 -71 -60 -35 -111 -63 -113 -63 -2 0 -28 -14 -57 -31 -29 -18 -75 -44
-103 -59 -46 -26 -372 -208 -490 -275 -27 -15 -79 -43 -115 -63 -36 -19 -69
-38 -75 -42 -5 -4 -35 -21 -65 -37 -30 -17 -73 -40 -95 -53 -22 -12 -99 -55
-171 -96 l-131 -74 -194 108 c-107 60 -214 120 -239 134 -25 14 -142 79 -260
145 -118 67 -237 133 -265 149 -27 15 -63 35 -80 45 -29 18 -60 35 -140 78
-22 12 -58 32 -80 45 -56 32 -120 68 -190 106 -118 65 -131 73 -215 128 -98
65 -243 172 -248 184 -2 4 -10 8 -17 8 -7 0 -15 4 -17 9 -1 4 -34 34 -73 67
-81 67 -311 296 -370 368 -22 27 -52 62 -67 77 -15 16 -25 29 -22 29 3 0 -1 6
-8 14 -79 83 -247 338 -341 516 -16 30 -33 59 -38 65 -13 13 -519 14 -519 1 0
-16 124 -265 190 -381 76 -133 227 -362 282 -427 13 -14 30 -36 38 -48 8 -12
22 -30 30 -40 8 -10 31 -37 50 -60 94 -115 315 -342 420 -432 30 -26 69 -59
85 -73 17 -14 55 -45 85 -68 30 -23 64 -50 75 -60 46 -42 341 -238 348 -231 2
2 10 -2 17 -11 7 -8 16 -15 21 -15 4 0 34 -15 66 -34 32 -19 61 -33 64 -33 4
1 15 -5 25 -14 11 -9 51 -33 89 -54 39 -21 99 -54 135 -75 36 -20 85 -48 110
-62 25 -14 61 -34 80 -45 35 -20 137 -77 175 -97 11 -6 28 -17 38 -25 9 -8 17
-11 17 -7 0 3 17 -5 38 -18 64 -41 432 -246 442 -246 6 0 10 -4 10 -10 0 -5 9
-10 20 -10 11 0 20 -4 20 -8 0 -5 21 -19 48 -32 26 -13 63 -33 82 -45 19 -12
67 -39 105 -59 39 -20 79 -42 90 -49 75 -46 91 -53 100 -45 17 15 275 158 285
158 6 0 10 5 10 10 0 6 5 10 10 10 6 0 28 11 49 24 21 14 42 22 45 19 3 -4 6
-1 6 5 0 7 4 12 9 12 5 0 68 34 140 75 72 41 136 75 141 75 6 0 10 5 10 10 0
6 6 10 13 10 7 0 29 11 50 25 20 14 37 23 37 20 0 -4 12 2 28 13 15 10 50 32
77 47 28 15 165 92 307 171 141 79 261 144 267 144 6 0 11 3 11 8 0 4 28 22
63 40 62 33 111 61 197 110 25 15 48 27 52 27 4 0 16 7 26 16 10 9 34 24 53
35 19 10 36 21 39 24 3 3 21 17 40 30 44 30 213 153 220 160 3 3 30 25 60 50
249 204 476 441 665 695 87 116 215 309 256 385 13 25 26 47 29 50 3 3 27 46
52 97 26 51 52 100 57 110 26 44 165 379 175 418 1 6 19 62 39 125 37 117 66
219 72 255 2 11 11 47 19 80 8 33 17 76 20 95 3 19 7 44 10 55 2 11 7 40 12
65 4 25 8 47 9 50 1 3 5 37 9 75 5 39 10 86 12 105 11 89 18 216 18 342 1 76
4 138 7 138 6 0 2 67 -5 86 -3 7 -2 15 2 18 7 7 3 196 -4 208 -3 4 -1 8 4 8 8
0 7 63 -2 86 -3 7 -2 15 1 18 8 8 5 355 -3 367 -3 5 -1 9 4 9 8 0 7 63 -2 86
-3 7 -2 15 1 18 3 3 5 61 4 128 0 68 -1 145 -2 172 0 26 2 51 5 53 3 3 1 14
-4 24 -6 10 -6 20 -1 23 5 3 5 21 1 41 -4 19 -4 37 0 40 4 3 4 20 0 39 -4 19
-5 38 -2 41 7 7 4 274 -4 286 -3 5 -1 9 4 9 8 0 7 63 -2 86 -3 7 -2 15 1 18 3
3 5 61 4 128 0 68 -1 145 -2 172 0 26 2 51 5 53 3 3 1 14 -4 24 -6 10 -6 20
-1 23 5 3 5 21 1 41 -4 19 -4 37 0 40 4 3 4 20 0 39 -4 19 -5 38 -2 41 7 7 4
274 -4 286 -3 5 -1 9 4 9 8 0 7 63 -2 86 -3 7 -2 15 1 18 8 8 5 355 -3 367 -3
5 -1 9 4 9 8 0 7 63 -2 86 -3 7 -2 15 2 18 7 7 3 196 -4 208 -3 4 -1 8 4 8 8
0 7 63 -2 86 -3 7 -2 15 2 18 7 7 3 196 -4 208 -3 4 -1 8 4 8 8 0 7 63 -2 86
-3 7 -2 15 2 18 7 7 3 196 -4 208 -3 4 -1 8 4 8 8 0 7 63 -2 87 -3 7 -2 14 2
17 4 2 6 19 5 38 -1 18 -2 45 -2 61 l-1 27 -3718 0 -3719 0 0 -1300z"/>
<path d="M6335 7985 c-58 -21 -105 -89 -95 -140 2 -6 1 -14 0 -20 -1 -8 -1
-74 1 -140 0 -5 -1 -52 -3 -103 -2 -50 0 -92 4 -92 4 0 4 -10 0 -22 -4 -13 -6
-38 -4 -55 1 -18 2 -41 2 -50 0 -10 0 -31 1 -48 1 -35 1 -39 -4 -82 -2 -18 1
-33 5 -33 5 0 5 -8 0 -17 -9 -20 -8 -143 1 -167 4 -9 3 -16 -1 -16 -9 0 -8
-93 2 -108 3 -6 2 -13 -4 -17 -6 -4 -8 -10 -6 -14 6 -10 8 -67 3 -108 -2 -18
1 -33 6 -33 4 0 5 -5 1 -11 -9 -16 -11 -179 -2 -179 4 0 4 -10 0 -22 -4 -13
-6 -38 -4 -55 3 -46 3 -47 0 -151 -2 -50 0 -92 4 -92 4 0 4 -10 0 -22 -4 -13
-6 -38 -4 -55 1 -18 2 -41 2 -50 0 -10 0 -31 1 -48 1 -35 1 -39 -4 -82 -2 -18
1 -33 5 -33 5 0 5 -8 0 -17 -9 -20 -8 -143 1 -167 4 -9 3 -16 -1 -16 -9 0 -8
-93 2 -108 3 -6 2 -13 -4 -17 -6 -4 -8 -10 -6 -14 6 -10 8 -67 3 -108 -2 -18
1 -33 6 -33 4 0 5 -5 1 -11 -9 -16 -11 -179 -2 -179 4 0 4 -10 0 -22 -4 -13
-6 -38 -4 -55 3 -46 3 -47 0 -151 -2 -50 0 -92 4 -92 4 0 4 -10 0 -22 -4 -13
-6 -38 -4 -55 1 -18 2 -41 2 -50 0 -10 0 -31 1 -48 1 -35 1 -39 -4 -82 -2 -18
1 -33 5 -33 5 0 5 -8 0 -17 -9 -20 -8 -143 1 -167 4 -9 3 -16 -1 -16 -4 0 -6
-26 -5 -58 l2 -58 -179 1 c-216 2 -217 2 -204 15 5 5 33 10 62 11 28 1 52 6
52 10 0 5 -13 31 -30 59 -16 28 -30 55 -30 59 0 5 -12 26 -26 47 -15 21 -27
43 -28 49 -1 6 -12 29 -25 50 -13 22 -24 45 -25 51 -1 7 -7 18 -13 25 -6 8
-39 70 -74 139 -35 69 -68 128 -74 132 -7 5 -7 8 0 8 7 0 7 3 0 8 -5 4 -31 48
-56 97 -26 50 -68 131 -94 180 -26 50 -75 142 -107 205 -33 63 -75 142 -93
175 -18 33 -61 114 -95 180 -107 207 -115 220 -125 227 -5 4 -7 8 -3 8 4 0 -3
19 -16 43 -13 23 -42 76 -63 117 -22 41 -72 138 -113 215 -40 77 -76 145 -80
150 -4 6 -10 17 -13 27 -5 14 -1 15 30 6 19 -5 38 -7 41 -3 12 11 10 349 -2
357 -12 8 -100 -24 -121 -46 -9 -8 -26 -34 -39 -57 l-24 -42 -23 44 c-13 24
-31 60 -42 80 -13 26 -26 38 -45 41 -45 6 -1742 1 -1748 -5 -3 -3 -7 -466 -7
-1029 l-2 -1023 -1338 -2 c-1063 -2 -1342 -5 -1354 -15 -15 -12 -14 -71 2
-158 2 -14 7 -41 9 -60 11 -74 18 -107 36 -157 10 -29 17 -53 14 -53 -2 0 16
-38 40 -85 42 -78 84 -136 130 -174 10 -9 26 -23 35 -32 22 -23 137 -84 186
-99 57 -18 73 -36 91 -99 62 -217 234 -428 414 -509 93 -41 90 -41 250 -47
190 -8 1336 -8 1348 -1 6 3 9 15 7 25 -3 16 -78 159 -104 200 -8 13 -92 15
-543 17 -599 3 -698 7 -782 29 -93 24 -181 74 -241 134 -60 61 -91 101 -78
101 4 0 3 4 -3 8 -16 11 -54 90 -54 112 0 13 9 22 25 26 14 3 340 7 725 8 384
1 701 4 704 7 6 5 -88 196 -105 214 -7 6 -269 10 -742 11 -403 1 -739 3 -747
6 -8 2 -21 7 -27 11 -7 5 -13 5 -13 2 0 -3 -32 11 -71 31 -85 45 -185 140
-218 207 -29 61 -39 126 -20 128 8 1 441 2 962 3 646 1 951 -1 956 -9 14 -17
255 -486 281 -546 5 -13 14 -31 19 -39 5 -8 71 -140 146 -292 75 -153 141
-280 146 -283 5 -4 9 1 9 10 0 34 69 135 134 195 46 44 153 97 223 110 56 11
156 9 208 -4 198 -49 336 -202 370 -410 2 -16 7 -31 9 -34 7 -7 713 -9 746 -2
25 5 25 6 25 105 0 55 4 123 8 150 8 55 15 90 17 90 1 0 3 7 5 15 20 91 91
214 168 293 66 68 138 127 155 127 6 0 12 3 14 8 9 19 169 91 223 99 17 2 42
8 56 12 33 11 226 7 259 -6 14 -5 32 -9 40 -8 8 1 20 -3 26 -7 7 -5 22 -11 34
-13 13 -2 66 -26 119 -52 53 -26 99 -49 102 -51 4 -1 9 6 11 16 5 18 17 19
197 19 105 0 191 -4 192 -9 4 -30 2 -55 -4 -65 -4 -6 -3 -14 2 -17 5 -3 6 -21
1 -40 -4 -19 -5 -37 -3 -40 5 -5 5 -36 1 -114 -2 -23 -1 -42 2 -42 5 0 4 -58
0 -70 -1 -3 -2 -9 -1 -14 7 -35 6 -96 -1 -96 -5 0 -6 -5 -3 -11 9 -13 13 -69
6 -69 -8 0 -5 -90 3 -97 3 -3 1 -14 -4 -24 -6 -10 -6 -20 -1 -23 4 -3 5 -23 1
-43 -3 -21 -3 -50 1 -66 4 -15 3 -27 -2 -27 -4 0 -6 -6 -3 -13 8 -23 11 -107
3 -107 -4 0 -4 -13 1 -28 4 -16 4 -36 -2 -45 -11 -20 -20 -19 149 -21 124 -1
132 0 135 19 2 11 3 1078 2 2370 0 2304 -1 2351 -20 2390 -31 64 -101 93 -169
70z m-2055 -1085 c44 3 80 3 80 0 0 -3 31 -4 70 -2 63 3 72 1 91 -20 18 -20
93 -159 232 -428 24 -47 66 -128 94 -180 28 -52 78 -149 113 -215 34 -66 82
-156 105 -200 23 -44 80 -152 126 -240 46 -88 107 -205 136 -260 28 -55 73
-140 98 -190 26 -49 65 -124 87 -165 22 -41 36 -70 30 -65 -11 10 -55 87 -129
225 -85 156 -96 178 -150 280 -31 58 -62 112 -69 121 -8 9 -12 18 -9 21 7 7
-42 26 -85 32 -19 3 -46 8 -60 11 -81 18 -107 17 -129 -6 -11 -13 -27 -35 -33
-51 -7 -15 -18 -28 -23 -28 -8 0 -247 141 -263 155 -4 4 33 69 69 123 16 24
29 45 29 48 0 3 8 18 18 32 10 15 17 33 16 40 -1 6 -2 18 -3 26 -2 26 -48 3
-75 -37 -14 -21 -26 -42 -26 -47 0 -6 -4 -10 -10 -10 -5 0 -10 -4 -10 -9 0
-15 -55 -93 -88 -124 -17 -16 -28 -36 -25 -45 2 -9 -24 -62 -58 -117 -91 -150
-92 -151 -73 -169 8 -9 21 -16 27 -16 13 0 83 100 79 113 -1 4 1 7 6 7 4 0 19
21 32 47 14 26 33 56 42 66 16 19 17 19 50 -5 18 -13 75 -49 125 -79 51 -30
93 -59 93 -66 0 -7 -13 -32 -30 -56 -16 -25 -30 -51 -30 -59 0 -12 45 -68 144
-178 17 -19 60 -69 96 -110 36 -41 70 -79 77 -85 26 -21 31 -58 13 -90 -9 -17
-45 -84 -80 -150 -96 -185 -102 -194 -124 -201 -21 -7 -775 -9 -781 -2 -2 2
-5 60 -6 129 -2 160 -19 202 -99 245 -32 16 -73 18 -547 18 l-513 0 -1 31 c-1
37 -1 1917 0 1927 1 4 283 7 627 7 345 0 629 3 633 6 3 4 7 3 8 -2 2 -4 39 -6
83 -3z m-1580 -2144 c0 -7 -6 -28 -13 -46 l-14 -32 -22 37 c-25 43 -23 50 18
53 21 2 31 -2 31 -12z m240 3 c0 -5 -5 -21 -11 -36 -6 -15 -15 -37 -19 -48 -4
-11 -17 -43 -29 -72 -12 -28 -21 -59 -21 -67 0 -9 -4 -16 -8 -16 -5 0 -9 -6
-9 -12 -2 -30 -29 -87 -38 -80 -6 4 -23 32 -39 63 l-29 56 18 54 c10 30 21 59
25 64 3 6 12 29 20 52 7 23 20 44 29 46 30 6 111 3 111 -4z m229 -24 c-5 -16
-13 -39 -18 -50 -13 -28 -23 -57 -27 -75 -2 -8 -8 -23 -13 -35 -6 -11 -44
-109 -84 -217 -41 -109 -77 -193 -83 -190 -5 4 -23 33 -40 66 l-31 58 35 87
c38 95 92 240 96 256 1 6 7 20 14 32 7 12 12 28 12 36 0 8 9 26 20 40 17 22
27 25 74 24 l53 -1 -8 -31z m241 21 c0 -6 -14 -47 -31 -91 -17 -44 -35 -91
-39 -105 -5 -14 -27 -72 -50 -130 -22 -58 -43 -112 -45 -120 -15 -57 -97 -255
-111 -264 -14 -11 -102 -11 -112 -1 -1 1 16 51 39 111 93 245 110 290 118 309
5 11 26 67 46 125 40 113 62 161 77 171 18 11 108 7 108 -5z m235 -11 c-4 -11
-7 -26 -7 -32 -1 -7 -5 -13 -10 -13 -5 0 -7 -4 -3 -9 3 -5 1 -12 -3 -15 -5 -3
-15 -27 -22 -53 -8 -27 -16 -50 -19 -53 -8 -6 -63 -161 -64 -177 0 -7 -4 -13
-9 -13 -4 0 -8 -6 -8 -14 0 -8 -5 -27 -12 -43 -6 -15 -12 -30 -13 -33 -4 -11
-17 -46 -25 -65 -21 -51 -42 -112 -46 -129 -6 -30 -42 -63 -67 -60 -12 1 -35
3 -51 3 -32 1 -33 -2 9 106 14 39 42 113 61 165 19 52 38 104 44 115 5 11 32
83 60 160 67 185 65 181 135 181 52 0 56 -2 50 -21z m180 11 c21 -8 41 -19 43
-26 4 -11 -25 -101 -53 -165 -7 -16 -18 -48 -25 -70 -7 -22 -17 -46 -23 -52
-5 -7 -6 -13 -2 -13 4 0 3 -6 -2 -12 -6 -7 -16 -31 -23 -53 -7 -22 -16 -44
-20 -50 -5 -5 -9 -14 -10 -20 -9 -42 -83 -230 -96 -244 -10 -11 -124 -24 -124
-14 0 1 4 12 9 25 9 20 72 190 163 433 17 44 34 89 38 100 8 19 21 54 25 65 1
3 5 14 10 25 4 11 14 35 21 53 15 36 15 37 69 18z m70 -483 c-1 -222 -5 -229
-116 -237 -46 -3 -53 6 -34 50 9 21 18 44 19 49 3 12 14 41 26 70 8 19 21 53
25 65 1 3 5 12 8 20 4 8 14 35 22 60 21 61 39 100 45 100 3 0 5 -80 5 -177z
m657 9 c16 -12 20 -126 6 -148 -5 -7 -62 -11 -168 -11 -151 -1 -161 1 -175 20
-8 11 -12 23 -10 27 2 3 5 28 6 53 2 26 8 52 13 57 24 19 305 22 328 2z"/>
<path d="M3333 6035 c-12 -9 -25 -30 -28 -48 -8 -45 -13 -81 -14 -89 -1 -4
-22 -8 -48 -10 -41 -3 -48 -6 -46 -23 4 -45 13 -132 17 -165 21 -160 26 -211
29 -272 1 -27 4 -48 7 -48 3 0 6 -19 6 -43 1 -40 10 -124 19 -177 4 -24 15
-132 19 -175 1 -19 9 -20 365 -20 339 0 365 1 369 18 2 9 7 17 11 18 65 7 84
18 110 68 22 40 3 101 -31 101 -8 0 -19 5 -25 11 -22 22 -398 7 -541 -22 -30
-6 -57 -8 -60 -4 -4 4 -7 158 -8 343 0 320 -3 362 -32 475 -19 72 -69 97 -119
62z"/>
<path d="M6595 7610 c-2 -4 -4 -1010 -4 -2237 0 -1739 2 -2232 12 -2235 20 -7
1195 -3 1202 3 14 15 -29 38 -82 45 -32 3 -67 8 -78 10 -62 13 -202 17 -567
18 l-408 1 0 2200 0 2201 -36 0 c-19 0 -37 -3 -39 -6z"/>
<path d="M5337 4264 c-1 -1 -18 -3 -37 -5 -19 -2 -41 -8 -49 -13 -8 -6 -16
-10 -18 -8 -16 14 -178 -58 -232 -103 -17 -15 -31 -24 -31 -21 0 11 -114 -111
-146 -156 -50 -69 -96 -182 -110 -268 -17 -102 -3 -283 27 -345 6 -12 11 -27
12 -35 2 -8 7 -22 12 -30 5 -8 10 -20 11 -25 3 -18 60 -103 103 -154 97 -114
254 -202 404 -227 72 -12 219 -7 287 11 72 18 230 90 230 104 0 5 8 12 18 16
25 7 125 109 163 165 96 142 138 320 115 490 -7 53 -11 70 -19 90 -3 8 -11 33
-18 55 -7 22 -21 56 -32 75 -29 53 -60 104 -72 117 -5 7 -15 18 -21 25 -24 28
-111 104 -139 123 -40 26 -135 75 -135 70 0 -2 -17 3 -37 11 -38 16 -49 19
-118 30 -39 6 -163 12 -168 8z m145 -289 c98 -12 214 -93 274 -191 43 -68 49
-89 62 -189 19 -151 -73 -320 -216 -398 -313 -170 -684 110 -605 457 37 161
177 298 328 322 22 3 41 7 43 9 3 2 35 0 114 -10z"/>
<path d="M5343 3695 c-83 -36 -110 -140 -54 -216 82 -110 269 -44 255 90 -3
20 -5 42 -6 50 -2 23 -67 78 -100 85 -43 9 -59 7 -95 -9z"/>
<path d="M3281 3814 c-80 -21 -149 -61 -207 -121 -54 -55 -104 -145 -109 -194
-1 -14 -4 -30 -7 -35 -6 -11 -3 -82 6 -142 7 -44 44 -134 58 -140 4 -2 8 -9 8
-16 0 -7 24 -35 53 -62 242 -231 623 -114 704 216 10 38 8 139 -3 181 -13 54
-72 169 -86 169 -5 0 -6 5 -3 10 3 6 2 10 -3 10 -5 0 -26 16 -46 35 -85 80
-246 119 -365 89z m164 -169 c92 -20 175 -123 180 -225 9 -183 -167 -314 -337
-250 -62 23 -120 78 -145 139 -16 36 -25 128 -14 146 3 6 7 18 8 28 10 64 103
149 177 164 11 2 21 5 23 7 4 4 72 -1 108 -9z"/>
<path d="M3316 3465 c-73 -68 18 -186 104 -134 16 10 31 23 31 29 1 5 2 14 3
19 0 5 4 12 8 16 10 10 -12 57 -36 77 -30 25 -78 23 -110 -7z"/>
</g>
</svg>
