<svg viewBox="0 0 85 71" xmlns="http://www.w3.org/2000/svg">
    <path d="M59.0071 32.2582H17.5723V15.6574H59.0071C61.4274 15.6574 63.1103 16.0845 63.9548 16.8304C64.7994 17.5763 65.3226 18.9597 65.3226 20.9806V26.9414C65.3226 29.0707 64.7994 30.4541 63.9548 31.2C63.1103 31.9459 61.4274 32.2646 59.0071 32.2646V32.2582ZM61.8497 0.00639915H0V71H17.5723V47.9028H49.9562L65.3226 71H85L68.058 47.7945C74.3041 46.8573 77.1089 44.9193 79.422 41.7253C81.7351 38.5314 82.8949 33.4249 82.8949 26.6099V21.2866C82.8949 17.2448 82.4726 14.0508 81.7351 11.6028C80.9977 9.1547 79.7371 7.0254 77.9471 5.1129C76.0563 3.3023 73.9511 2.0273 71.4237 1.173C68.8963 0.4271 65.7385 0 61.8497 0V0.00639915Z" fill="currentColor"/>
</svg>
