<svg viewBox="0 0 26 22" xmlns="http://www.w3.org/2000/svg" fill="currentColor">
<path fill-rule="evenodd" clip-rule="evenodd" d="M8.7873 1.44369C8.33312 1.44369 7.95852 1.81829 7.95852 2.27246V4.41529C7.95852 4.81395 7.63534 5.13713 7.23668 5.13713C6.83801 5.13713 6.51483 4.81395 6.51483 4.41529V2.27246C6.51483 1.02096 7.5358 0 8.7873 0H16.8506C18.1022 0 19.1231 1.02098 19.1231 2.27246V4.41529C19.1231 4.81395 18.7999 5.13713 18.4012 5.13713C18.0026 5.13713 17.6794 4.81395 17.6794 4.41529V2.27246C17.6794 1.81828 17.3048 1.44369 16.8506 1.44369H8.7873ZM23.4541 10.6232C23.8528 10.6232 24.176 10.9463 24.176 11.345V19.562C24.176 20.7546 23.203 21.7275 22.0104 21.7275H3.62745C2.43495 21.7275 1.46191 20.7547 1.46191 19.562V11.3931C1.46191 10.9945 1.7851 10.6713 2.18376 10.6713C2.58242 10.6713 2.9056 10.9945 2.9056 11.3931V19.562C2.9056 19.9573 3.23218 20.2838 3.62745 20.2838H22.0104C22.4057 20.2838 22.7323 19.9572 22.7323 19.562V11.345C22.7323 10.9463 23.0555 10.6232 23.4541 10.6232Z"/>
<path fill-rule="evenodd" clip-rule="evenodd" d="M2.66456 5.2695C2.26805 5.2695 1.94271 5.59485 1.94271 5.99134V9.40793C1.94271 10.2342 2.67458 11.0834 4.42113 11.7969C6.10147 12.4833 8.43238 12.9115 10.9348 13.0546C11.3328 13.0773 11.637 13.4184 11.6143 13.8164C11.5915 14.2145 11.2504 14.5187 10.8524 14.4959C8.26392 14.3479 5.75847 13.9027 3.87517 13.1333C2.05808 12.391 0.499023 11.2021 0.499023 9.40793V5.99134C0.499023 4.79756 1.47069 3.82581 2.66456 3.82581H22.9725C24.1663 3.82581 25.138 4.7976 25.138 5.99134V9.40793C25.138 11.2131 23.5602 12.4056 21.7259 13.1479C19.8235 13.9177 17.2941 14.3599 14.6863 14.5014C14.2882 14.523 13.948 14.2178 13.9264 13.8197C13.9048 13.4216 14.21 13.0814 14.6081 13.0598C17.1295 12.923 19.4846 12.4974 21.1844 11.8096C22.9522 11.0943 23.6943 10.2396 23.6943 9.40793V5.99134C23.6943 5.5949 23.3689 5.2695 22.9725 5.2695H2.66456Z"/>
<path fill-rule="evenodd" clip-rule="evenodd" d="M10.3154 12.3435C10.3154 11.9449 10.6386 11.6217 11.0373 11.6217H14.5984C14.997 11.6217 15.3202 11.9449 15.3202 12.3435V14.0038C15.3202 15.3156 14.2499 16.3859 12.9381 16.3859H12.6975C11.3857 16.3859 10.3154 15.3156 10.3154 14.0038V12.3435ZM11.7591 13.0654V14.0038C11.7591 14.5183 12.183 14.9422 12.6975 14.9422H12.9381C13.4526 14.9422 13.8765 14.5183 13.8765 14.0038V13.0654H11.7591Z"/>
</svg>
